<svg height="512pt" viewBox="-20 0 511 512" width="512pt" xmlns="http://www.w3.org/2000/svg"><path d="m338.433594 316.011719c-34.1875 0-62 27.8125-62 62s27.8125 62 62 62 62-27.8125 62-62-27.8125-62-62-62zm0 104c-23.160156 0-42-18.839844-42-42 0-23.160157 18.839844-42 42-42s42 18.839843 42 42c0 23.160156-18.839844 42-42 42zm0 0"/><path d="m462.433594 345.410156h-11.804688c-2.394531-8.277344-5.691406-16.234375-9.859375-23.785156l8.304688-8.304688c1.875-1.875 2.929687-4.417968 2.929687-7.074218 0-2.652344-1.054687-5.195313-2.933594-7.070313l-31.882812-31.859375c-3.902344-3.902344-10.234375-3.902344-14.136719 0l-8.292969 8.292969c-7.550781-4.167969-15.511718-7.464844-23.789062-9.855469v-11.730468c0-1.546876-.363281-3.007813-.992188-4.320313l31.664063-32.304687c1.832031-1.867188 2.859375-4.378907 2.859375-7v-52.398438c0-5.523438-4.476562-10-10-10h-140.542969v-35.1875c14.472657-3.902344 25.152344-17.136719 25.152344-32.824219 0-18.75-15.25-34-34-34-18.746094 0-34 15.25-34 34 0 14.839844 9.5625 27.480469 22.847656 32.109375v35.902344h-117.378906c.78125-3.273438 1.1875-6.652344 1.1875-10.101562 0-23.765626-19.332031-43.097657-43.101563-43.097657-23.765624 0-43.097656 19.332031-43.097656 43.097657 0 3.449218.40625 6.828124 1.191406 10.101562h-22.257812c-5.523438 0-10 4.476562-10 10v52.398438c0 2.621093 1.027344 5.132812 2.859375 7l38.6875 39.46875c3.863281 3.945312 10.195313 4.007812 14.140625.144531 3.945312-3.867188 4.007812-10.199219.140625-14.144531l-35.828125-36.550782v-38.316406h80.441406.011719.007813 283.539062v38.316406l-36.960938 37.707032h-31.640624c-5.523438 0-10 4.476562-10 10v11.730468c-8.28125 2.390625-16.238282 5.6875-23.789063 9.855469l-8.289063-8.292969c-3.90625-3.902344-10.234374-3.90625-14.140624 0l-31.882813 31.859375c-1.878906 1.875-2.933594 4.417969-2.933594 7.070313s1.054688 5.199218 2.929688 7.074218l8.304687 8.300782c-4.167968 7.554687-7.464844 15.511718-9.859375 23.789062h-11.777343c-5.523438 0-9.996094 4.472656-10 9.992188l-.027344 45.074218c0 2.652344 1.054687 5.199219 2.929687 7.074219 1.875 1.878907 4.417969 2.933594 7.070313 2.933594h11.804687c2.394531 8.277344 5.691407 16.234375 9.859375 23.785156l-8.355468 8.355469c-1.53125 1.53125-2.457032 3.441406-2.785157 5.425781l-62.5625 36.527344v-129.417969c0-2.617187-1.027343-5.128906-2.859375-7l-40.222656-41.03125c-3.867188-3.945312-10.195312-4.011718-14.140625-.144531s-4.007813 10.199219-.144531 14.144531l37.363281 38.117188v142.753906c0 3.582031 1.917969 6.890625 5.023437 8.671875 1.539063.886719 3.257813 1.328125 4.976563 1.328125 1.742187 0 3.488281-.453125 5.042969-1.363281l78.394531-45.773438 23.769531 23.789063c1.875 1.875 4.421875 2.929687 7.074219 2.929687s5.195313-1.054687 7.070313-2.929687l8.367187-8.367188c7.550781 4.167969 15.507813 7.46875 23.789063 9.859375v11.855469c0 5.523438 4.476562 10 10 10h45.070312c5.523438 0 10-4.476562 10-10v-11.855469c8.277344-2.390625 16.238281-5.691406 23.789062-9.859375l8.367188 8.367188c1.875 1.875 4.421875 2.929687 7.074219 2.929687 2.652343 0 5.195312-1.054687 7.070312-2.933593l31.859375-31.882813c3.902344-3.90625 3.902344-10.234375 0-14.136719l-8.359375-8.355468c4.167969-7.554688 7.46875-15.511719 9.859375-23.789063h11.804688c5.519531 0 10-4.476563 10-10v-45.074219c0-5.523437-4.476563-10-10-10zm-217.320313-279.421875c7.71875 0 14 6.277344 14 14 0 7.71875-6.28125 14-14 14-7.722656 0-14-6.28125-14-14 0-7.722656 6.277344-14 14-14zm-193.546875 71.910157c0-12.734376 10.363282-23.097657 23.101563-23.097657s23.101562 10.363281 23.101562 23.097657c0 3.558593-.8125 6.980468-2.339843 10.101562h-41.523438c-1.527344-3.121094-2.339844-6.542969-2.339844-10.101562zm400.867188 252.585937h-9.59375c-4.714844 0-8.785156 3.292969-9.777344 7.898437-2.453125 11.417969-6.917969 22.191407-13.269531 32.023438-2.558594 3.957031-2.007813 9.164062 1.328125 12.5l6.796875 6.792969-17.726563 17.738281-6.800781-6.804688c-3.332031-3.332031-8.542969-3.882812-12.5-1.328124-9.828125 6.351562-20.601563 10.816406-32.023437 13.269531-4.605469.992187-7.898438 5.066406-7.898438 9.777343v9.648438h-25.070312v-9.644531c0-4.714844-3.292969-8.789063-7.902344-9.777344-11.417969-2.457031-22.191406-6.917969-32.019532-13.269531-3.957031-2.558594-9.164062-2.007813-12.5 1.328125l-6.800781 6.800781-17.726562-17.734375 6.796875-6.796875c3.335937-3.332031 3.886718-8.542969 1.328125-12.5-6.351563-9.828125-10.816407-20.601562-13.269531-32.023438-.988282-4.605468-5.0625-7.898437-9.777344-7.898437h-9.585938l.011719-25.074219h9.574219c4.714844 0 8.789062-3.289062 9.777344-7.898437 2.453124-11.417969 6.917968-22.191407 13.269531-32.019531 2.558593-3.960938 2.007812-9.167969-1.328125-12.5l-6.734375-6.738282 17.734375-17.722656 6.730468 6.730469c3.335938 3.332031 8.542969 3.886719 12.5 1.328125 9.828126-6.351563 20.601563-10.816406 32.019532-13.269532 4.609375-.992187 7.898437-5.0625 7.898437-9.777343v-9.519531h25.074219v9.519531c0 4.714843 3.292969 8.785156 7.898438 9.777343 11.421874 2.453126 22.195312 6.917969 32.023437 13.269532 3.957031 2.558594 9.164063 2.007812 12.5-1.328125l6.730469-6.730469 17.734375 17.722656-6.738281 6.738282c-3.332032 3.332031-3.886719 8.539062-1.328126 12.496093 6.355469 9.832031 10.816407 20.605469 13.269532 32.023438.992187 4.609375 5.0625 7.898437 9.777344 7.898437h9.597656zm0 0"/><path d="m140.890625 74.65625v37.675781c0 5.523438 4.476563 10 10 10 5.519531 0 10-4.476562 10-10v-37.675781c16.113281-4.402344 28-19.164062 28-36.65625 0-20.953125-17.046875-38-38-38s-38 17.046875-38 38c0 17.492188 11.882813 32.253906 28 36.65625zm10-54.65625c9.921875 0 18 8.074219 18 18s-8.078125 18-18 18c-9.925781 0-18-8.074219-18-18s8.074219-18 18-18zm0 0"/><path d="m331.332031 74.65625v42.34375c0 5.523438 4.480469 10 10 10 5.523438 0 10-4.476562 10-10v-42.34375c16.117188-4.402344 28-19.164062 28-36.65625 0-20.953125-17.046875-38-38-38s-38 17.046875-38 38c0 17.492188 11.886719 32.253906 28 36.65625zm10-54.65625c9.925781 0 18 8.074219 18 18s-8.074219 18-18 18-18-8.074219-18-18 8.074219-18 18-18zm0 0"/><path d="m80.675781 272c-2.628906 0-5.207031 1.070312-7.070312 2.929688-1.859375 1.859374-2.929688 4.441406-2.929688 7.070312s1.070313 5.210938 2.929688 7.070312c1.863281 1.859376 4.441406 2.929688 7.070312 2.929688 2.640625 0 5.210938-1.070312 7.070313-2.929688 1.871094-1.859374 2.929687-4.441406 2.929687-7.070312s-1.058593-5.210938-2.929687-7.070312c-1.859375-1.859376-4.429688-2.929688-7.070313-2.929688zm0 0"/></svg>