<svg height="512pt" viewBox="0 0 512 511" width="512pt" xmlns="http://www.w3.org/2000/svg"><path d="m438 148.496094c40.804688 0 74-33.195313 74-73.996094 0-40.804688-33.195312-74-74-74-40.800781 0-73.996094 33.195312-73.996094 74 0 16.800781 5.636719 32.300781 15.105469 44.738281l-72.675781 72.675781c-13.921875-10.894531-31.425782-17.417968-50.4375-17.417968-14.230469 0-27.617188 3.648437-39.292969 10.050781l-43.574219-60.757813c6.300782-7.347656 10.117188-16.878906 10.117188-27.296874 0-23.15625-18.839844-41.996094-41.996094-41.996094-23.160156 0-42 18.839844-42 41.996094 0 23.160156 18.839844 42 42 42 5.527344 0 10.800781-1.082032 15.636719-3.03125l43.582031 60.765624c-16.261719 14.996094-26.472656 36.457032-26.472656 60.269532 0 45.210937 36.785156 81.996094 82 81.996094 19.011718 0 36.515625-6.519532 50.4375-17.417969l55.128906 55.128906c-6.640625 9.429687-10.558594 20.914063-10.558594 33.300781 0 31.980469 26.019532 57.996094 58 57.996094 31.980469 0 58-26.015625 58-57.996094 0-31.980468-26.019531-58-58-58-12.386718 0-23.867187 3.914063-33.300781 10.554688l-55.128906-55.125c10.898437-13.925782 17.417969-31.429688 17.417969-50.4375 0-19.011719-6.519532-36.515625-17.417969-50.4375l72.675781-72.675782c12.4375 9.472657 27.945312 15.113282 44.75 15.113282zm-318.75-52.003906c0-12.128907 9.867188-21.996094 22-21.996094 12.128906 0 22 9.867187 22 21.996094 0 12.132812-9.871094 22-22 22-12.132812 0-22-9.867188-22-22zm318.75-75.992188c29.777344 0 54 24.222656 54 54 0 29.773438-24.222656 53.996094-54 53.996094-14.433594 0-27.554688-5.703125-37.253906-14.964844-.253906-.332031-.527344-.652344-.828125-.957031-.304688-.300781-.625-.570313-.953125-.828125-9.257813-9.695313-14.960938-22.8125-14.960938-37.246094 0-29.777344 24.222656-54 53.996094-54zm-244.003906 235.996094c0-34.1875 27.8125-62 62-62s62 27.8125 62 62c0 34.183594-27.8125 61.996094-62 61.996094s-62-27.8125-62-61.996094zm253.007812 153.007812c0 20.949219-17.046875 37.996094-38 37.996094s-38-17.046875-38-37.996094c0-9.839844 3.761719-18.816406 9.914063-25.570312.484375-.335938.945312-.710938 1.378906-1.140625.429687-.429688.804687-.894531 1.136719-1.375 6.757812-6.15625 15.734375-9.914063 25.570312-9.914063 20.953125 0 38 17.046875 38 38zm0 0"/><path d="m255.996094 222.496094c-18.746094 0-34 15.25-34 34 0 18.746094 15.253906 34 34 34s34-15.253906 34-34c0-18.75-15.253906-34-34-34zm0 48c-7.71875 0-14-6.28125-14-14 0-7.722656 6.28125-14 14-14s14 6.277344 14 14c0 7.71875-6.28125 14-14 14zm0 0"/><path d="m134.375 363.972656-22.480469 22.480469c-11.6875-8.761719-26.195312-13.957031-41.894531-13.957031-38.597656 0-70 31.402344-70 69.996094 0 38.597656 31.402344 70 70 70 38.59375 0 69.996094-31.402344 69.996094-70 0-15.699219-5.195313-30.207032-13.957032-41.898438l22.476563-22.476562c3.90625-3.90625 3.90625-10.238282 0-14.144532-3.902344-3.902344-10.234375-3.902344-14.140625 0zm-64.375 128.519532c-27.570312 0-50-22.429688-50-50 0-27.566407 22.429688-49.996094 50-49.996094 27.566406 0 49.996094 22.429687 49.996094 49.996094 0 27.570312-22.429688 50-49.996094 50zm0 0"/><path d="m166.175781 332.171875c-3.90625 3.90625-3.90625 10.238281 0 14.144531l.039063.035156c1.945312 1.949219 4.492187 2.921876 7.042968 2.921876 2.558594 0 5.121094-.984376 7.078126-2.941407 3.90625-3.902343 3.886718-10.253906-.019532-14.160156-3.902344-3.90625-10.238281-3.90625-14.140625 0zm0 0"/></svg>